<?xml version="1.0" encoding="utf-8"?>
<!-- Generator: Adobe Illustrator 20.0.0, SVG Export Plug-In . SVG Version: 6.00 Build 0)  -->
<svg version="1.1" id="Layer_1" xmlns="http://www.w3.org/2000/svg" xmlns:xlink="http://www.w3.org/1999/xlink" x="0px" y="0px"
	 viewBox="0 0 279.7 57.3" enable-background="new 0 0 279.7 57.3" xml:space="preserve">
<g>
	<g>
		<path fill="#FFFFFF" d="M46.1,22.8c-0.6-4-3-7.8-6.4-10c-7.6-4.9-18.4-1.3-21.3,7.3c0.3,0,0.6,0,0.9,0c1.5,0,3,0.2,4.5,0.5
			c0.1,0,0.2,0,0.2,0.1c0.2,0.1,0.5,0.1,0.7,0.2c-0.1,0,2.1-2.4,2.3-2.6c1-0.7,2.2-1.2,3.5-1.5c2.6-0.4,5.4,0.5,7.2,2.4
			c2.6,2.7,3,6.9,1,10.1c-0.2,0.4-0.5,0.7-0.8,1.1s-0.7,0.6-1,0.9c0.2,0.3,0.3,0.5,0.5,0.8c0.9,1.5,1.8,3,2.8,4.5
			c0,0.1,1.9-1.6,2-1.7C45.2,31.8,46.7,27.2,46.1,22.8z"/>
		<path opacity="0.7" fill="#008DA8" d="M46.1,22.8c-0.6-4-3-7.8-6.4-10c-7.6-4.9-18.4-1.3-21.3,7.3c0.3,0,0.6,0,0.9,0
			c1.5,0,3,0.2,4.5,0.5c0.1,0,0.2,0,0.2,0.1c0.2,0.1,0.5,0.1,0.7,0.2c-0.1,0,2.1-2.4,2.3-2.6c1-0.7,2.2-1.2,3.5-1.5
			c2.6-0.4,5.4,0.5,7.2,2.4c2.6,2.7,3,6.9,1,10.1c-0.2,0.4-0.5,0.7-0.8,1.1s-0.7,0.6-1,0.9c0.2,0.3,0.3,0.5,0.5,0.8
			c0.9,1.5,1.8,3,2.8,4.5c0,0.1,1.9-1.6,2-1.7C45.2,31.8,46.7,27.2,46.1,22.8z"/>
		<path fill="#008DA8" d="M59.8,37.5c-0.7-5-4-9.1-8.4-11c-0.2,2.1-0.7,4.2-1.5,6.2c2,1.2,3.4,3.3,3.8,5.7c0.3,2.2-0.2,4.3-1.5,6
			c-1.3,1.7-3.2,2.9-5.4,3.2c-1.9,0.3-3.9-0.1-5.6-1.2c-1.8-1.2-2.9-3.4-4.1-5.2c-3-4.6-5.3-10.9-10.1-14c-2.9-1.9-6.4-2.6-9.8-2.1
			c-3.8,0.6-7.1,2.5-9.4,5.6s-3.3,6.9-2.7,10.6c0.6,3.8,2.5,7.1,5.6,9.4c2.5,1.9,5.5,2.9,8.6,2.9h13c-1.7-1.3-3.5-3.2-4.5-6.2h-8.5
			c-0.1,0-0.2,0-0.2,0c-1.7,0-3.3-0.6-4.6-1.6c-1.7-1.3-2.9-3.2-3.2-5.4c-0.3-2.2,0.2-4.3,1.5-6c1.3-1.7,3.2-2.9,5.4-3.2
			c2-0.3,3.9,0.1,5.6,1.2c2.3,1.5,3.4,4.1,4.8,6.4c2.6,4.3,5,9.9,9.4,12.8c0.2,0.1,0.4,0.3,0.7,0.4c2.2,1.2,4.6,1.9,7.1,1.9
			c0.7,0,1.4,0,2.1-0.1C55.5,52.7,61,45.4,59.8,37.5z"/>
	</g>
	<g>
		<path fill="#008DA8" d="M77.8,33v20.7h-6.6V22.9H78l14.3,20v-20h6.6v30.9h-6.3L77.8,33z"/>
		<path fill="#008DA8" d="M115,30.8c6.7,0,11.2,5,11.2,12.3v1.3h-16.6c0.4,2.8,2.6,5.2,6.4,5.2c2.1,0,4.5-0.8,6-2.2l2.6,3.8
			c-2.2,2-5.7,3.1-9.2,3.1c-6.8,0-11.9-4.6-11.9-11.8C103.4,36.1,108.2,30.8,115,30.8z M109.5,40.5h11c-0.1-2.1-1.6-5-5.5-5
			C111.3,35.5,109.8,38.3,109.5,40.5z"/>
		<path fill="#008DA8" d="M131.6,48.2V36.5h-3.7v-5.1h3.7v-6.1h5.9v6.1h4.5v5.1h-4.5v10.1c0,1.4,0.7,2.5,2,2.5c0.9,0,1.7-0.3,2-0.6
			l1.2,4.4c-0.9,0.8-2.5,1.4-4.9,1.4C133.8,54.3,131.6,52.2,131.6,48.2z"/>
		<path fill="#008DA8" d="M145.9,38.3c0-9.5,6.9-16,15.6-16c4.9,0,8.7,2.2,11.2,5.5l-2.2,1.4c-1.9-2.7-5.3-4.5-9-4.5
			c-7.2,0-12.9,5.5-12.9,13.6c0,8,5.6,13.6,12.9,13.6c3.7,0,7.1-1.8,9-4.5l2.3,1.4c-2.8,3.4-6.4,5.5-11.3,5.5
			C152.8,54.3,145.9,47.8,145.9,38.3z"/>
		<path fill="#008DA8" d="M178,53.8V22.9h2.4v30.9H178z"/>
		<path fill="#008DA8" d="M186.6,42.6c0-6.5,4.2-11.7,10.7-11.7c6.6,0,10.8,5.2,10.8,11.7s-4.2,11.8-10.8,11.8
			C190.8,54.3,186.6,49.1,186.6,42.6z M205.5,42.6c0-5-2.9-9.5-8.2-9.5c-5.2,0-8.1,4.6-8.1,9.5c0,5,3,9.6,8.1,9.6
			C202.6,52.1,205.5,47.6,205.5,42.6z"/>
		<path fill="#008DA8" d="M229.4,53.8v-3.3c-1.8,2-4.8,3.8-8.1,3.8c-4.5,0-7-2.1-7-7.2V31.4h2.4v15.2c0,4.3,2.2,5.6,5.4,5.6
			c2.9,0,5.8-1.7,7.3-3.7v-17h2.4v22.3H229.4z"/>
		<path fill="#008DA8" d="M255.8,53.8v-3.6c-1.6,2.3-4.4,4.1-7.8,4.1c-5.9,0-9.9-4.5-9.9-11.7c0-7.1,4-11.8,9.9-11.8
			c3.2,0,6,1.6,7.8,4.2V22.9h2.5v30.9H255.8z M255.8,48.2V37.1c-1.3-2.2-4.2-4.1-7.4-4.1c-5,0-7.8,4.2-7.8,9.6
			c0,5.4,2.9,9.5,7.8,9.5C251.5,52.1,254.5,50.3,255.8,48.2z"/>
		<path fill="#008DA8" d="M264.4,30.4v-6.6H262v-0.6h5.3v0.6H265v6.6H264.4z"/>
		<path fill="#008DA8" d="M274.7,30.4v-6.4l-2.6,6.4h-0.2l-2.6-6.4v6.4h-0.6v-7.2h0.9l2.4,6l2.4-6h0.9v7.2H274.7z"/>
	</g>
	<g>
		<g>
			<g>
				<path fill="#81868E" d="M75.8,18c-1,0-1.8-0.1-2.4-0.3c-0.6-0.2-1.1-0.5-1.4-0.9c-0.3-0.4-0.5-1-0.6-1.8
					c-0.1-0.7-0.1-1.7-0.1-2.8c0-1.1,0-2,0.1-2.8c0.1-0.7,0.3-1.3,0.6-1.8c0.3-0.4,0.8-0.8,1.4-0.9c0.6-0.2,1.4-0.3,2.4-0.3
					c0.4,0,0.7,0,1.1,0c0.3,0,0.6,0.1,0.9,0.1c0.3,0,0.6,0.1,0.8,0.1l0,2.2c-0.2,0-0.5,0-0.7-0.1c-0.2,0-0.5,0-0.8,0
					c-0.3,0-0.6,0-0.9,0c-0.4,0-0.7,0-1,0.1c-0.2,0.1-0.4,0.2-0.5,0.5c-0.1,0.2-0.2,0.6-0.2,1c0,0.4,0,1,0,1.7c0,0.7,0,1.3,0,1.7
					c0,0.4,0.1,0.8,0.2,1c0.1,0.2,0.3,0.4,0.5,0.5c0.2,0.1,0.6,0.1,1,0.1c0.3,0,0.6,0,0.9,0c0.3,0,0.6,0,0.8-0.1
					c0.2,0,0.5,0,0.7-0.1l0,2.2c-0.2,0-0.5,0.1-0.8,0.1c-0.3,0-0.6,0.1-0.9,0.1C76.5,17.9,76.2,18,75.8,18"/>
				<path fill="#81868E" d="M80.9,6.6h2.3l0.3,0.9c0.1,0,0.2-0.1,0.3-0.2C84,7.1,84.2,7,84.4,6.9c0.2-0.1,0.5-0.2,0.8-0.3
					c0.3-0.1,0.6-0.1,1-0.1c0.1,0,0.3,0,0.4,0c0.1,0,0.2,0,0.3,0c0.1,0,0.2,0,0.3,0l0,2.4c-0.1,0-0.2,0-0.3,0c-0.1,0-0.2,0-0.4,0
					c-0.1,0-0.3,0-0.4,0c-0.6,0-1.1,0.1-1.5,0.2c-0.4,0.2-0.6,0.3-0.7,0.4v8.3h-3V6.6z"/>
				<path fill="#81868E" d="M88.1,14.2c0-0.5,0.1-1,0.2-1.4c0.1-0.4,0.3-0.7,0.6-1c0.3-0.3,0.6-0.5,1.1-0.6c0.5-0.1,1-0.2,1.7-0.2
					c0.5,0,1,0,1.3,0.1c0.4,0,0.7,0.1,1,0.1v-0.7c0-0.3,0-0.6-0.1-0.9c0-0.2-0.1-0.4-0.3-0.5C93.4,9,93.2,8.9,93,8.9
					c-0.3,0-0.6-0.1-1-0.1c-0.7,0-1.3,0-1.8,0c-0.5,0-0.9,0-1.2,0.1V6.6c0.4,0,0.8-0.1,1.2-0.1c0.4,0,0.7-0.1,1.1-0.1
					c0.4,0,0.8,0,1.1,0c1,0,1.7,0.1,2.3,0.3c0.6,0.2,1,0.4,1.4,0.8c0.3,0.4,0.5,0.8,0.6,1.3c0.1,0.5,0.2,1.2,0.2,1.9v7h-2.3
					l-0.3-0.7c-0.1,0-0.2,0.1-0.4,0.2c-0.2,0.1-0.4,0.2-0.7,0.3c-0.3,0.1-0.6,0.2-0.9,0.3c-0.4,0.1-0.7,0.1-1.2,0.1
					c-0.4,0-0.8-0.1-1.2-0.2c-0.4-0.1-0.7-0.3-1-0.5c-0.3-0.2-0.5-0.6-0.7-1c-0.2-0.4-0.3-1-0.3-1.6V14.2z M90.9,14.3
					c0,0.6,0.1,1,0.3,1.2c0.2,0.2,0.6,0.3,1.2,0.3c0.4,0,0.7,0,1-0.1c0.3-0.1,0.5-0.2,0.6-0.2v-2.6c-0.2,0-0.4-0.1-0.6-0.1
					c-0.3,0-0.6,0-1,0c-0.6,0-0.9,0.1-1.2,0.3c-0.2,0.2-0.3,0.6-0.3,1.1V14.3z"/>
				<path fill="#81868E" d="M102.1,18c-0.6,0-1.2-0.1-1.6-0.3c-0.4-0.2-0.7-0.5-1-0.9c-0.2-0.4-0.4-0.9-0.5-1.5
					c-0.1-0.6-0.1-1.3-0.1-2.1v-2c0-0.8,0.1-1.5,0.2-2.2c0.1-0.6,0.3-1.1,0.5-1.5c0.2-0.4,0.6-0.7,1-0.9c0.4-0.2,0.9-0.3,1.5-0.3
					c0.4,0,0.7,0,1.1,0.1c0.3,0.1,0.6,0.1,0.9,0.2c0.2,0.1,0.5,0.2,0.6,0.2c0.2,0.1,0.3,0.1,0.3,0.1V3.2h3v14.5h-2.3l-0.2-0.7
					c-0.1,0-0.2,0.1-0.4,0.2c-0.2,0.1-0.4,0.2-0.7,0.3c-0.3,0.1-0.6,0.2-1,0.3C102.9,17.9,102.6,18,102.1,18 M103.4,15.6
					c0.4,0,0.7,0,1-0.1c0.3-0.1,0.5-0.1,0.7-0.2V9.1c-0.1-0.1-0.3-0.1-0.7-0.2c-0.3-0.1-0.7-0.1-1-0.1c-0.3,0-0.5,0-0.7,0.1
					c-0.2,0.1-0.4,0.2-0.5,0.4c-0.1,0.2-0.2,0.5-0.2,0.9c0,0.4-0.1,0.9-0.1,1.5v1.2c0,0.6,0,1.1,0.1,1.5c0,0.4,0.1,0.6,0.2,0.8
					c0.1,0.2,0.3,0.3,0.5,0.4C102.8,15.6,103.1,15.6,103.4,15.6"/>
				<rect x="110.6" y="3.2" fill="#81868E" width="2.9" height="14.5"/>
				<path fill="#81868E" d="M130.1,21.2h-2.9V6.6h2.3l0.2,0.7c0.1,0,0.2-0.1,0.4-0.2c0.2-0.1,0.4-0.2,0.7-0.3c0.3-0.1,0.6-0.2,1-0.3
					c0.4-0.1,0.8-0.1,1.2-0.1c0.7,0,1.2,0.1,1.6,0.3c0.4,0.2,0.7,0.5,1,0.9c0.2,0.4,0.4,0.9,0.5,1.5c0.1,0.6,0.1,1.3,0.1,2.1v2
					c0,0.8,0,1.5-0.1,2.1c-0.1,0.6-0.3,1.1-0.5,1.5c-0.2,0.4-0.6,0.7-1,0.9c-0.4,0.2-0.9,0.3-1.6,0.3c-0.4,0-0.7,0-1.1-0.1
					c-0.3-0.1-0.6-0.1-0.9-0.2c-0.2-0.1-0.5-0.2-0.6-0.2c-0.2-0.1-0.3-0.1-0.4-0.2V21.2z M130.1,15.2c0.1,0.1,0.3,0.1,0.6,0.2
					c0.3,0.1,0.7,0.1,1,0.1c0.3,0,0.6,0,0.8-0.1c0.2-0.1,0.4-0.2,0.5-0.4c0.1-0.2,0.2-0.5,0.2-0.8c0-0.4,0.1-0.9,0.1-1.5v-1.2
					c0-0.6,0-1.1-0.1-1.5c0-0.4-0.1-0.6-0.2-0.8c-0.1-0.2-0.3-0.3-0.5-0.4c-0.2-0.1-0.5-0.1-0.8-0.1c-0.4,0-0.7,0-1,0.1
					c-0.3,0.1-0.5,0.1-0.7,0.2V15.2z"/>
				<path fill="#81868E" d="M143,18c-1,0-1.8-0.1-2.4-0.3c-0.6-0.2-1.1-0.5-1.4-1c-0.3-0.5-0.6-1.1-0.7-1.8
					c-0.1-0.7-0.2-1.6-0.2-2.7c0-1,0.1-1.9,0.2-2.7c0.1-0.7,0.4-1.3,0.7-1.8c0.3-0.5,0.8-0.8,1.4-1c0.6-0.2,1.4-0.3,2.4-0.3
					c1,0,1.8,0.1,2.4,0.3c0.6,0.2,1.1,0.5,1.4,1c0.3,0.5,0.6,1.1,0.7,1.8c0.1,0.7,0.2,1.6,0.2,2.7c0,1-0.1,1.9-0.2,2.7
					c-0.1,0.7-0.3,1.3-0.7,1.8c-0.3,0.5-0.8,0.8-1.4,1C144.7,17.8,143.9,18,143,18 M143,15.6c0.4,0,0.7,0,0.9-0.1
					c0.2-0.1,0.4-0.2,0.5-0.5c0.1-0.2,0.2-0.6,0.2-1c0-0.5,0.1-1,0.1-1.8c0-0.7,0-1.3-0.1-1.8c0-0.4-0.1-0.8-0.2-1
					c-0.1-0.2-0.3-0.4-0.5-0.5c-0.2-0.1-0.5-0.1-0.9-0.1c-0.4,0-0.7,0-0.9,0.1c-0.2,0.1-0.4,0.2-0.5,0.5c-0.1,0.2-0.2,0.6-0.2,1
					c0,0.4-0.1,1-0.1,1.8c0,0.7,0,1.3,0.1,1.8c0,0.5,0.1,0.8,0.2,1c0.1,0.2,0.3,0.4,0.5,0.5C142.2,15.5,142.6,15.6,143,15.6"/>
				<polygon fill="#81868E" points="149.7,8.9 152.6,6.6 152.6,17.7 149.7,17.7 				"/>
				<path fill="#81868E" d="M154.9,6.6h2.3l0.2,0.7c0.1,0,0.2-0.1,0.4-0.2c0.2-0.1,0.5-0.2,0.7-0.3c0.3-0.1,0.6-0.2,1-0.3
					c0.4-0.1,0.8-0.1,1.2-0.1c0.6,0,1.2,0.1,1.6,0.3c0.4,0.2,0.7,0.5,1,0.9c0.2,0.4,0.4,0.9,0.5,1.4c0.1,0.6,0.1,1.2,0.1,2v6.8h-2.9
					v-6.5c0-0.5,0-0.9-0.1-1.2c0-0.3-0.1-0.6-0.2-0.7c-0.1-0.2-0.3-0.3-0.5-0.4c-0.2-0.1-0.4-0.1-0.7-0.1c-0.4,0-0.7,0-1,0.1
					c-0.3,0.1-0.5,0.2-0.7,0.2v8.6h-2.9V6.6z"/>
				<path fill="#81868E" d="M172.7,15.4c-0.2,0-0.4,0.1-0.6,0.1c-0.4,0-0.8,0.1-1.2,0.1c-0.2,0-0.4,0-0.5-0.1
					c-0.1,0-0.2-0.1-0.3-0.2s-0.1-0.3-0.2-0.5c0-0.2-0.1-0.5-0.1-0.8V8.9h0V6.6h0V4.5h-2.1l-0.5,2.2h-1.6v2.2h1.3v5.1
					c0,0.7,0,1.3,0.1,1.8c0.1,0.5,0.2,0.9,0.4,1.2c0.2,0.3,0.5,0.6,0.9,0.7c0.4,0.2,0.9,0.2,1.6,0.2c0.3,0,0.7,0,1,0
					c0.3,0,0.6-0.1,0.9-0.1c0.3,0,0.6-0.1,0.9-0.1L172.7,15.4z"/>
				<polygon fill="#81868E" points="172.6,6.6 169.9,6.6 171.3,8.9 172.6,8.9 				"/>
				<path fill="#81868E" d="M124.7,9.2c-0.1-0.6-0.4-1.1-0.7-1.5c-0.3-0.4-0.8-0.7-1.3-0.9c-0.6-0.2-1.3-0.3-2.1-0.3
					c-0.9,0-1.6,0.1-2.2,0.3c-0.6,0.2-1.1,0.6-1.4,1c-0.4,0.5-0.6,1.1-0.8,1.8c-0.2,0.7-0.2,1.6-0.2,2.6c0,1,0.1,1.9,0.2,2.7
					c0.2,0.7,0.4,1.3,0.8,1.8c0.4,0.5,0.9,0.8,1.4,1c0.6,0.2,1.3,0.3,2.1,0.3c0.6,0,1.1,0,1.6-0.1c0.5,0,0.9-0.1,1.3-0.1
					c0.4-0.1,0.8-0.1,1.2-0.2l0-2.2c-0.3,0-0.7,0.1-1.1,0.1c-0.3,0-0.7,0.1-1.2,0.1c-0.4,0-0.9,0-1.4,0c-0.4,0-0.8,0-1.1-0.1
					c-0.3-0.1-0.5-0.2-0.7-0.4c-0.2-0.2-0.3-0.4-0.4-0.7c-0.1-0.3-0.1-0.7-0.1-1.1h0l-0.1-1.7h0c0-0.6,0-1.1,0.1-1.5
					c0.1-0.4,0.2-0.7,0.3-0.9c0.2-0.2,0.4-0.3,0.6-0.4c0.2-0.1,0.5-0.1,0.9-0.1c0.3,0,0.5,0,0.8,0.1c0.2,0.1,0.4,0.2,0.5,0.3
					c0.1,0.2,0.2,0.4,0.3,0.7c0.1,0.3,0.1,0.7,0.1,1.1v0.3c0,0.1,0,0.2,0,0.3h-3.6l1.4,1.7h4.7c0-0.2,0-0.3,0-0.5c0-0.2,0-0.4,0-0.6
					c0-0.2,0-0.5,0-0.7C124.9,10.5,124.8,9.8,124.7,9.2"/>
			</g>
		</g>
	</g>
</g>
</svg>
