<?xml version="1.0" encoding="UTF-8"?>
<svg id="Layer_2" data-name="Layer 2" xmlns="http://www.w3.org/2000/svg" viewBox="0 0 320.65 48.57">
  <defs>
    <style>
      .cls-1 {
        fill: #010101;
      }

      .cls-2 {
        fill: #ffad00;
      }

      .cls-3 {
        fill: #344049;
      }
    </style>
  </defs>
  <g id="Layer_1-2" data-name="Layer 1">
    <g>
      <g>
        <g>
          <g>
            <polygon class="cls-1" points="220.31 29.19 228.44 29.19 228.44 31.4 223.18 31.4 223.18 33.32 228.23 33.32 228.23 35.61 223.18 35.61 223.18 37.59 228.53 37.59 228.53 39.82 220.31 39.82 220.31 29.19"/>
            <rect class="cls-1" x="241.08" y="29.19" width="2.89" height="10.64"/>
            <path class="cls-1" d="M254.52,29.53l-.19,2.28c-2.34-1.35-5.92-.92-5.98,2.63-.07,3.54,3.69,4.06,6.07,2.86l.15,2.32c-4.2,1.31-9.22-.02-9.2-5.18,.02-5.05,5.08-6.45,9.16-4.9"/>
            <path class="cls-1" d="M263.04,29.36l-.2,2.22c-1.46-.8-4.22-.82-4.22,.44,0,1.87,4.93,.52,4.93,4.52s-4.7,3.98-7.74,3.06l.22-2.35c1.91,.89,4.61,1.09,4.61-.46,0-1.7-4.95-.74-4.95-4.54,0-3.12,3.86-3.95,7.36-2.89"/>
            <path class="cls-1" d="M271.77,29.36l-.19,2.22c-1.46-.8-4.23-.82-4.23,.44,0,1.87,4.93,.52,4.93,4.52s-4.7,3.98-7.74,3.06l.22-2.35c1.91,.89,4.61,1.09,4.61-.46,0-1.7-4.95-.74-4.95-4.54,0-3.12,3.86-3.95,7.35-2.89"/>
            <polygon class="cls-1" points="285.09 29.19 288.75 29.19 292.25 36.05 292.25 29.19 294.91 29.19 294.91 39.83 291.46 39.83 287.77 32.83 287.77 39.83 285.09 39.83 285.09 29.19"/>
            <path class="cls-1" d="M278.42,28.93c3.01,0,5.3,1.76,5.3,5.6s-2.3,5.55-5.3,5.55c-2.99,0-5.28-1.84-5.28-5.55s2.28-5.6,5.28-5.6m-2.32,5.6c0,1.62,.69,3.46,2.32,3.45,1.62,0,2.3-1.83,2.32-3.45,.01-1.47-.69-3.45-2.32-3.45-1.62,0-2.32,1.83-2.32,3.45"/>
            <path class="cls-1" d="M233.31,33.67h1.59c.71,.01,1.36-.42,1.35-1.2,0-.69-.57-1.19-1.31-1.18h-1.63v2.38Zm-2.77-4.48h5.21c1.42,0,3.39,.62,3.39,2.83,0,1.41-.64,2.21-1.86,2.57,.06,0,.69,.27,.96,1.07,0,.03,1.49,4.15,1.51,4.16h-3.07l-1.09-3.2c-.17-.49-.53-.82-1.05-.82-.45,0-1.16-.03-1.16,0v4.01h-2.83v-10.64Z"/>
          </g>
          <g>
            <path class="cls-1" d="M308.04,30.75c-1.06,.39-2.23-.16-2.62-1.21-.39-1.06,.16-2.23,1.21-2.62l11.28-4.13c1.06-.39,2.23,.16,2.62,1.21,.39,1.06-.16,2.23-1.21,2.62l-11.28,4.13Z"/>
            <path class="cls-1" d="M308.04,36.85c-1.06,.39-2.23-.16-2.62-1.21-.39-1.06,.16-2.23,1.21-2.62l11.28-4.13c1.06-.39,2.23,.16,2.62,1.21,.39,1.06-.16,2.23-1.21,2.62l-11.28,4.13Z"/>
            <path class="cls-1" d="M308.04,42.95c-1.06,.39-2.23-.16-2.62-1.21-.39-1.06,.16-2.23,1.21-2.62l11.28-4.13c1.06-.39,2.23,.15,2.62,1.21,.39,1.06-.16,2.23-1.21,2.62l-11.28,4.13Z"/>
          </g>
        </g>
        <g>
          <path class="cls-1" d="M177.85,37.75h-.67v-6.48h2.52c1.51,0,2.09,.83,2.09,1.87s-.6,1.88-2.09,1.88h-1.85v2.73Zm1.88-3.37c.93,0,1.37-.47,1.37-1.24s-.44-1.23-1.37-1.23h-1.88v2.48h1.88Z"/>
          <path class="cls-1" d="M181.58,37.75l2.67-6.48h.72l2.68,6.48h-.74l-.61-1.52h-3.38l-.62,1.52h-.71Zm3.01-5.67l-1.44,3.53h2.9l-1.43-3.53h-.02Z"/>
          <path class="cls-1" d="M192.69,37.75l-1.53-2.82h-1.9v2.82h-.67v-6.48h2.67c1.47,0,2.08,.81,2.08,1.83,0,.87-.45,1.58-1.49,1.77l1.63,2.89h-.8Zm-1.4-5.85h-2.03v2.38h2.03c.92,0,1.36-.46,1.36-1.2s-.44-1.19-1.36-1.19Z"/>
          <path class="cls-1" d="M198.61,31.9h-2.07v5.85h-.67v-5.85h-2.07v-.64h4.81v.64Z"/>
          <path class="cls-1" d="M204.85,37.88c-1.99,0-3.31-1.5-3.31-3.38s1.32-3.38,3.31-3.38,3.31,1.5,3.31,3.38-1.32,3.38-3.31,3.38Zm0-.63c1.5,0,2.61-1.11,2.61-2.75s-1.11-2.75-2.61-2.75-2.61,1.11-2.61,2.75,1.11,2.75,2.61,2.75Z"/>
          <path class="cls-1" d="M209.55,37.75v-6.48h4.13v.63h-3.46v2.25h3.27v.63h-3.27v2.98h-.67Z"/>
        </g>
      </g>
      <g>
        <g>
          <path class="cls-2" d="M111.79,17.69l-15.26-11.63c-.79-.6-1.88-.6-2.66,0h0c-1.15,.88-1.15,2.61,0,3.49l15.26,11.63c.38,.29,.85,.45,1.33,.45,2.1,0,3-2.67,1.33-3.94Z"/>
          <path class="cls-2" d="M96.97,17.69l-7.82-5.99c-.79-.6-1.88-.6-2.66,0h0c-1.15,.88-1.15,2.61,0,3.49l7.82,5.99c.38,.29,.85,.45,1.33,.45,2.1,0,3-2.67,1.33-3.94Z"/>
          <path class="cls-2" d="M83.13,17.69l-.92-.71c-.79-.6-1.88-.6-2.66,0-1.15,.88-1.15,2.61,0,3.49l.92,.71c.38,.29,.85,.45,1.33,.45,2.1,0,3-2.67,1.33-3.94Z"/>
          <path class="cls-2" d="M141.42,17.69L123,3.63c-.88-.67-2.09-.67-2.97,0l-5.94,4.52L103.92,.45c-.79-.6-1.88-.6-2.66,0-1.15,.88-1.15,2.61,0,3.49l22.69,17.24c.38,.29,.85,.45,1.33,.45,2.1,0,3-2.67,1.33-3.94l-8.9-6.79,3.81-2.89,17.24,13.17c.38,.29,.85,.45,1.33,.45,2.1,0,3-2.67,1.33-3.94Z"/>
        </g>
        <path class="cls-3" d="M7.5,27.18c3.05,0,5.07,1.45,6.18,3.23,.69,1.12-.14,2.56-1.45,2.56h0c-.61,0-1.18-.32-1.46-.86-.61-1.15-1.79-1.89-3.29-1.89-2.46,0-4.02,2-4.02,4.83s1.56,4.81,4.02,4.81c1.5,0,2.68-.74,3.29-1.89,.28-.54,.86-.86,1.46-.86h0c1.31,0,2.14,1.44,1.45,2.56-1.1,1.78-3.12,3.23-6.18,3.23-4.43,0-7.5-3.5-7.5-7.84s3.07-7.87,7.5-7.87Z"/>
        <path class="cls-3" d="M24.87,30.56c-2.43-.02-3.88,1.27-3.88,4.17v6.22c0,.88-.71,1.59-1.59,1.59h-.26c-.88,0-1.59-.71-1.59-1.59v-11.84c0-.88,.71-1.59,1.59-1.59h0c.88,0,1.59,.71,1.59,1.59v.49c.53-.91,1.71-2.12,4.09-2.22,.88-.04,.83,.71,.83,.71v1.67s.08,.8-.78,.8Z"/>
        <path class="cls-3" d="M26.98,38.35c0-2.55,1.8-4.2,5.76-4.75l4.34-.61v-.23c0-1.82-1.16-2.75-3.21-2.75-1.44,0-2.4,.49-2.88,1.34-.3,.53-.83,.89-1.44,.89h-.03c-1.24,0-2.05-1.36-1.4-2.42,.94-1.53,2.76-2.65,5.83-2.65,4.4,0,6.48,2.17,6.48,5.62v6.92c0,.33,.02,.69,.05,1.04,.1,.96-.64,1.8-1.6,1.8h-1.29s-.2-.75-.2-1.97c-1.01,1.53-2.75,2.32-5.15,2.32-3.73,0-5.27-1.97-5.27-4.54Zm6.11-2.26c-2.11,.32-2.81,1.1-2.81,2.14,0,1.42,1.01,1.97,2.66,1.97,2.78,0,4.14-1.74,4.14-3.76v-.96l-3.99,.61Z"/>
        <path class="cls-3" d="M56.88,20.84h.26c.88,0,1.59,.71,1.59,1.59v18.53c0,.88-.71,1.59-1.59,1.59h0c-.88,0-1.59-.71-1.59-1.59v-.55c-.95,1.56-2.72,2.49-5.07,2.49-4.43,0-6.95-3.56-6.95-7.84s2.52-7.87,6.95-7.87c2.34,0,3.97,1.04,4.81,2.32v-7.06c0-.88,.71-1.59,1.59-1.59Zm-5.67,9.38c-2.6,0-4.23,2.08-4.23,4.83s1.62,4.81,4.23,4.81,4.23-2.11,4.23-4.81-1.59-4.83-4.23-4.83Z"/>
        <path class="cls-3" d="M62.93,40.95V22.43c0-.88,.71-1.59,1.59-1.59h.26c.88,0,1.59,.71,1.59,1.59v18.53c0,.88-.71,1.59-1.59,1.59h-.26c-.88,0-1.59-.71-1.59-1.59Z"/>
        <path class="cls-3" d="M73.34,36.03c-.21,0-.37,.19-.34,.39,.38,2.15,1.87,3.52,4.14,3.52,1.33,0,2.73-.46,3.7-1.45,.35-.36,.78-.62,1.27-.62h.02c1.26,0,2.02,1.46,1.24,2.45-1.31,1.63-3.65,2.58-6.31,2.58-4.54,0-7.5-3.39-7.5-7.87s3.01-7.84,7.47-7.84,7.38,3.39,7.38,7.79v.02c0,.58-.47,1.05-1.06,1.05h-10.01Zm.08-2.55h7.17c.21,0,.38-.19,.33-.4-.41-1.86-1.81-3.1-3.89-3.1s-3.48,1.26-3.94,3.09c-.05,.21,.12,.41,.33,.41Z"/>
        <path class="cls-3" d="M89.42,48.57h-.26c-.88,0-1.59-.71-1.59-1.59V29.12c0-.88,.71-1.59,1.59-1.59h0c.88,0,1.59,.71,1.59,1.59v.55c.98-1.53,2.75-2.49,5.07-2.49,4.46,0,6.98,3.56,6.98,7.87s-2.52,7.84-6.98,7.84c-2.32,0-3.97-1.01-4.81-2.32v6.4c0,.88-.71,1.59-1.59,1.59Zm5.7-8.71c2.61,0,4.23-2.11,4.23-4.81s-1.62-4.89-4.23-4.89-4.23,2.11-4.23,4.89,1.59,4.81,4.23,4.81Z"/>
        <path class="cls-3" d="M104.99,35.05c0-4.23,3.01-7.87,7.79-7.87s7.82,3.65,7.82,7.87-3.01,7.84-7.82,7.84-7.79-3.62-7.79-7.84Zm7.79,4.81c2.52,0,4.37-1.91,4.37-4.81s-1.85-4.83-4.37-4.83-4.34,1.91-4.34,4.83,1.85,4.81,4.34,4.81Z"/>
        <path class="cls-3" d="M125.37,27.52h.26c.88,0,1.59,.71,1.59,1.59v11.84c0,.88-.71,1.59-1.59,1.59h-.26c-.88,0-1.59-.71-1.59-1.59v-11.84c0-.88,.71-1.59,1.59-1.59Z"/>
        <path class="cls-3" d="M134.58,29.52c.64-1.19,2.17-2.34,4.63-2.34,3.65,0,5.59,2.43,5.59,5.93v7.84c0,.88-.71,1.59-1.59,1.59h-.26c-.88,0-1.59-.71-1.59-1.59v-7.66c0-1.72-1.38-3.2-3.1-3.16-2.1,.05-3.41,1.4-3.41,3.7v7.12c0,.88-.71,1.59-1.59,1.59h-.26c-.88,0-1.59-.71-1.59-1.59v-11.84c0-.88,.71-1.59,1.59-1.59h0c.88,0,1.59,.71,1.59,1.59v.41Z"/>
        <path class="cls-3" d="M153.8,42.63c-3.07,0-4.4-1.59-4.4-4.43v-7.93h-.91c-.76,0-1.37-.62-1.37-1.37h0c0-.76,.62-1.37,1.37-1.37h.91s0-2.53,0-2.53c0-.76,.62-1.37,1.37-1.37h.7c.76,0,1.37,.62,1.37,1.37v2.53h1.43c.76,0,1.37,.62,1.37,1.37h0c0,.76-.62,1.37-1.37,1.37h-1.43s0,7.58,0,7.58c0,.98,.8,1.79,1.78,1.76,.01,0,1.11-.06,.97,1.56,0,0-.12,1.46-1.79,1.46Z"/>
      </g>
    </g>
  </g>
</svg>